<svg xmlns="http://www.w3.org/2000/svg" viewBox="0 0 512 512">
  <defs>
    <linearGradient id="bg" x1="0%" y1="0%" x2="100%" y2="100%">
      <stop offset="0%" style="stop-color:#0f766e"/>
      <stop offset="100%" style="stop-color:#1e293b"/>
    </linearGradient>
    <linearGradient id="shield" x1="0%" y1="0%" x2="0%" y2="100%">
      <stop offset="0%" style="stop-color:#34d399"/>
      <stop offset="100%" style="stop-color:#059669"/>
    </linearGradient>
  </defs>
  <!-- Background rounded square -->
  <rect width="512" height="512" rx="96" fill="url(#bg)"/>
  <!-- Terminal window -->
  <rect x="70" y="120" width="300" height="220" rx="20" fill="#0b1220" stroke="#334155" stroke-width="4"/>
  <rect x="70" y="120" width="300" height="44" rx="20" fill="#1e293b"/>
  <circle cx="100" cy="142" r="8" fill="#ef4444"/>
  <circle cx="128" cy="142" r="8" fill="#f59e0b"/>
  <circle cx="156" cy="142" r="8" fill="#22c55e"/>
  <!-- Prompt -->
  <polyline points="104,210 150,242 104,274" fill="none" stroke="#34d399" stroke-width="14" stroke-linecap="round" stroke-linejoin="round"/>
  <line x1="168" y1="278" x2="300" y2="278" stroke="#94a3b8" stroke-width="14" stroke-linecap="round"/>
  <!-- Shield with checkmark -->
  <path d="M330 210 L330 320 Q330 400 392 432 Q454 400 454 320 L454 210 L392 188 Z" fill="url(#shield)" opacity="0.97"/>
  <path d="M330 210 L330 320 Q330 400 392 432 Q454 400 454 320 L454 210 L392 188 Z" fill="none" stroke="#0b1220" stroke-width="6" opacity="0.4"/>
  <polyline points="360,308 386,334 430,278" fill="none" stroke="white" stroke-width="18" stroke-linecap="round" stroke-linejoin="round"/>
</svg>
